<?xml version="1.0" encoding="UTF-8"?>
<svg id="uuid-b052f261-c1ab-4c29-910b-4e351d9d5ea8" data-name="图层 2" xmlns="http://www.w3.org/2000/svg" viewBox="0 0 1000 1000">
  <defs>
    <style>
      .uuid-7b16a75a-4add-4780-901f-85495795bee2 {
        fill: #479ef5;
      }

      .uuid-7b16a75a-4add-4780-901f-85495795bee2, .uuid-a6d813e0-d1ca-460f-892d-d51b614255c1, .uuid-d723c384-0ea4-4bd7-8f06-5ff2c2ea6d9b {
        stroke-width: 0px;
      }

      .uuid-a6d813e0-d1ca-460f-892d-d51b614255c1 {
        fill: none;
      }

      .uuid-d723c384-0ea4-4bd7-8f06-5ff2c2ea6d9b, .uuid-67969fe0-7985-4981-a7c5-135b2ff6fbf9 {
        fill: #fff;
      }

      .uuid-67969fe0-7985-4981-a7c5-135b2ff6fbf9 {
        stroke: #fff;
        stroke-linecap: round;
        stroke-linejoin: round;
        stroke-width: 14px;
      }
    </style>
  </defs>
  <g id="uuid-2158a551-ca5f-4a79-a571-3ee4fd6e8b3b" data-name="图层 2">
    <g>
      <path class="uuid-d723c384-0ea4-4bd7-8f06-5ff2c2ea6d9b" d="m417.86,448.31c24.5,0,39.05-13.78,39.05-35.99,0-21.44-15.31-32.16-45.17-32.16-4.76,0-9.75.4-15,1.19-12,1.8-21.69-9.71-18.08-21.29l35.96-115.31c2.15-6.9,8.54-11.61,15.78-11.61h104.51c10.12,0,17.87,9.02,16.34,19.02l-4.14,27.05c-1.23,8.07-8.17,14.03-16.34,14.03h-58.78c-7.17,0-13.52,4.62-15.72,11.44l-1.14,3.52c-3.44,10.64,4.55,21.44,15.73,21.41.07,0,.14,0,.21,0,40.58,0,65.46,24.88,65.46,67,0,66.61-43.26,114.85-115.23,114.85-23.19,0-43.81-3.85-65.44-12.17-8.25-3.17-12.61-12.2-9.86-20.6l9.76-29.83c3.09-9.43,13.7-13.96,22.71-9.82,13.73,6.31,27.05,9.25,39.38,9.25Z"/>
      <path class="uuid-d723c384-0ea4-4bd7-8f06-5ff2c2ea6d9b" d="m390.06,587.48c49.95,0,73.3,14.66,73.3,54.3,0,48.41-28.71,75.65-81.05,74.91-.57,0-1.91-.15-2.48-.17-1.6-.06-2.99,1.1-3.24,2.69-1.95,12.52-3.89,25.03-5.84,37.55-.15.95-.26,4.98-1.56,10.02-1.06,4.09-1.65,6.38-3.55,8.68-3.36,4.08-8.26,5.1-10.58,5.58-3.6.75-4.57,0-10.46,0-7.65,0-15.3,0-22.95,0-.49.02-3.1.09-5.23-1.9-2.54-2.37-2.25-5.66-2.21-6.04,9.13-57.64,18.27-115.27,27.4-172.91.5-1.58,1.96-5.43,5.8-8.59,4.29-3.54,8.92-4.03,10.52-4.13h32.12Zm-.81,86.06c15.47,0,22.8-9.23,22.8-27.69,0-10.32-6.24-15.47-18.46-15.47h0c-1.56,0-2.9,1.14-3.14,2.68l-5.6,35.38c-.44,2.81,1.52,5.11,4.36,5.11.01,0,.02,0,.03,0Z"/>
      <path class="uuid-d723c384-0ea4-4bd7-8f06-5ff2c2ea6d9b" d="m553.36,607.05l-16.87,106.36c-1.41,5.83-2.36,13.42,1.63,17,2.13,1.92,4.34,1.49,15.09,2.57,12.61,1.28,14.37,2.36,15.47,3.48,1.26,1.29,4.21,5.24,1.25,16.09-.75,4.73-1.5,9.47-2.25,14.2-1.3,8.22-8.39,14.28-16.72,14.28h-59.65c-10.4,0-18.35-9.3-16.72-19.58l25.31-159.71c1.3-8.22,8.39-14.28,16.72-14.28h20.02c10.41,0,18.35,9.3,16.72,19.58Z"/>
      <path class="uuid-d723c384-0ea4-4bd7-8f06-5ff2c2ea6d9b" d="m723.04,593.73l12.63,180.12c.27,3.89-2.81,7.19-6.71,7.19h-40.57c-3.74,0-6.76-3.05-6.72-6.79l.14-14.93c.04-3.74-2.98-6.79-6.72-6.79h-20.22c-2.98,0-5.6,1.96-6.45,4.82l-5.57,18.87c-.84,2.86-3.47,4.82-6.45,4.82h-40.65c-4.7,0-7.94-4.69-6.29-9.09l67.7-180.12c.99-2.62,3.49-4.36,6.29-4.36h52.87c3.53,0,6.46,2.73,6.71,6.25Zm-53.02,91.46l-6.07,19.54c-1.34,4.33,1.89,8.72,6.42,8.72h5.92c3.69,0,6.69-2.98,6.72-6.67l.15-19.54c.06-7.73-10.85-9.43-13.14-2.04Z"/>
      <path class="uuid-d723c384-0ea4-4bd7-8f06-5ff2c2ea6d9b" d="m839.88,593.98l13.35,79.86c.57,3.39,5.43,3.4,6.02.02l13.98-79.94c.65-3.73,3.89-6.45,7.67-6.45h29.68c4.78,0,8.44,4.27,7.7,9l-27.96,177.98c-.6,3.79-3.86,6.58-7.7,6.58h-36.53c-3.76,0-6.98-2.68-7.66-6.38l-9.33-50.64c-1.58-8.56-13.87-8.48-15.34.1l-8.61,50.43c-.64,3.74-3.88,6.48-7.68,6.48h-30.44c-4.79,0-8.45-4.29-7.69-9.02l28.46-177.98c.6-3.78,3.86-6.56,7.69-6.56h36.71c3.81,0,7.06,2.75,7.68,6.51Z"/>
      <path class="uuid-7b16a75a-4add-4780-901f-85495795bee2" d="m502.3,858.57c-188.17,0-342.46-145.06-357.15-329.46h-42.36c14.91,207.37,187.86,370.97,399.03,370.97,80.88,0,156.15-24,219.08-65.27h-90.06c-39.9,15.34-83.24,23.76-128.55,23.76Z"/>
      <path class="uuid-7b16a75a-4add-4780-901f-85495795bee2" d="m502.3,141.98c197.88,0,358.29,160.41,358.29,358.29,0,16.36-1.1,32.47-3.23,48.25h41.62c1.92-15.91,2.92-32.1,2.92-48.52,0-118.2-51.26-224.42-132.75-297.66-70.85-63.68-164.57-102.42-267.33-102.42-81.51,0-157.32,24.38-220.55,66.24h91.42c40.2-15.6,83.9-24.17,129.61-24.17Z"/>
      <path class="uuid-d723c384-0ea4-4bd7-8f06-5ff2c2ea6d9b" d="m312.38,254.71l-194.29,239.94c-6.51,8.04-17.31,10.3-24.68,5.18-1.45-1.01-2.94-2.18-4.41-3.52-.07-.06-.14-.12-.2-.19-6.62-6.09-6.62-17.2-.1-25.24,64.77-79.99,129.54-159.98,194.32-239.97,6.33-7.82,16.85-10.33,24.15-5.53.72.47,1.43.98,2.13,1.51,1.16.89,2.24,1.83,3.25,2.82,6.34,6.19,6.26,17.07-.16,25Z"/>
      <path class="uuid-d723c384-0ea4-4bd7-8f06-5ff2c2ea6d9b" d="m221.41,355.53l27.92,82.43c10.25,30.42,20.44,45.63,30.58,45.63,6.22,0,15.55-6.02,25.5-15.69,3.67-3.57,9.65.27,7.97,5.1h0c-.16.46-.39.89-.67,1.29-16.36,22.46-33.06,33.69-50.12,33.69-20.5,0-36.76-17.27-48.78-51.82l-22.27-64.55m-4.95-14.68l-24.39-73.58c-9.9-29.6-19.26-44.4-28.1-44.4-6.46,0-15.89,6.91-28.3,20.74-3.28,3.66-9.3.68-8.4-4.15l.63-3.35c.13-.68.4-1.34.8-1.91,17.34-24.75,34.23-37.13,50.65-37.13,20.74,0,38,20.57,51.78,61.72l15.55,45.98"/>
      <path class="uuid-67969fe0-7985-4981-a7c5-135b2ff6fbf9" d="m275.35,224.31c14.61-1.76,29.22-3.53,43.84-5.29,1.1,14.49,2.2,28.97,3.3,43.46"/>
      <path class="uuid-67969fe0-7985-4981-a7c5-135b2ff6fbf9" d="m128.76,500.1c-14.61,1.76-29.22,3.53-43.84,5.29-1.1-14.49-2.2-28.97-3.3-43.46"/>
    </g>
    <rect class="uuid-a6d813e0-d1ca-460f-892d-d51b614255c1" width="1000" height="1000"/>
  </g>
</svg>