<?xml version="1.0" encoding="UTF-8"?>
<svg id="_图层_2" data-name="图层 2" xmlns="http://www.w3.org/2000/svg" viewBox="0 0 931.68 884.25">
  <defs>
    <style>
      .cls-1 {
        fill: #0f6cbd;
      }

      .cls-1, .cls-2 {
        stroke-width: 0px;
      }

      .cls-3 {
        stroke: #242424;
        stroke-linecap: round;
        stroke-linejoin: round;
        stroke-width: 14px;
      }

      .cls-3, .cls-2 {
        fill: #242424;
      }
    </style>
  </defs>
  <g id="_图层_1-2" data-name="图层 1">
    <path class="cls-2" d="m378.57,385c27.08,0,43.15-15.23,43.15-39.77,0-23.69-16.92-35.54-49.92-35.54-5.26,0-10.78.45-16.57,1.32-13.26,1.99-23.97-10.73-19.98-23.52l39.74-127.43c2.38-7.63,9.44-12.83,17.43-12.83h115.49c11.19,0,19.74,9.96,18.05,21.02l-4.57,29.9c-1.36,8.92-9.03,15.5-18.05,15.5h-64.95c-7.92,0-14.94,5.11-17.38,12.64l-1.26,3.89c-3.8,11.76,5.03,23.69,17.39,23.66.08,0,.15,0,.23,0,44.84,0,72.34,27.5,72.34,74.04,0,73.61-47.81,126.92-127.34,126.92-25.62,0-48.41-4.25-72.31-13.45-9.11-3.51-13.94-13.48-10.9-22.77l10.79-32.96c3.41-10.42,15.13-15.43,25.1-10.86,15.18,6.97,29.89,10.22,43.52,10.22Z"/>
    <path class="cls-2" d="m347.85,538.79c55.2,0,81,16.2,81,60,0,53.5-31.73,83.59-89.56,82.78-.63,0-2.11-.16-2.74-.19-1.77-.07-3.3,1.22-3.58,2.97-2.15,13.83-4.3,27.66-6.45,41.49-.16,1.05-.28,5.5-1.72,11.08-1.17,4.52-1.82,7.05-3.92,9.6-3.71,4.51-9.13,5.63-11.69,6.16-3.98.83-5.05,0-11.56,0-8.46,0-16.91,0-25.37,0-.55.02-3.42.1-5.77-2.1-2.81-2.62-2.49-6.25-2.44-6.67,10.09-63.69,20.19-127.38,30.28-191.08.55-1.75,2.16-6,6.41-9.49,4.75-3.91,9.85-4.45,11.63-4.56h35.49Zm-.9,95.1c17.1,0,25.2-10.2,25.2-30.6,0-11.4-6.9-17.1-20.4-17.1h0c-1.73,0-3.2,1.26-3.47,2.96l-6.19,39.09c-.49,3.1,1.68,5.64,4.82,5.64.01,0,.02,0,.04,0Z"/>
    <path class="cls-2" d="m528.31,560.43l-18.64,117.53c-1.56,6.44-2.61,14.83,1.8,18.79,2.35,2.12,4.8,1.64,16.68,2.84,13.94,1.41,15.88,2.61,17.09,3.85,1.4,1.43,4.65,5.79,1.38,17.78-.83,5.23-1.65,10.46-2.48,15.69-1.44,9.09-9.27,15.78-18.47,15.78h-65.92c-11.5,0-20.27-10.28-18.47-21.63l27.97-176.49c1.44-9.09,9.27-15.78,18.47-15.78h22.12c11.5,0,20.27,10.28,18.47,21.63Z"/>
    <path class="cls-2" d="m715.83,545.7l13.96,199.05c.3,4.3-3.1,7.95-7.41,7.95h-44.83c-4.13,0-7.47-3.37-7.43-7.5l.16-16.5c.04-4.13-3.3-7.5-7.43-7.5h-22.35c-3.29,0-6.19,2.17-7.12,5.33l-6.16,20.85c-.93,3.16-3.83,5.33-7.12,5.33h-44.92c-5.19,0-8.78-5.18-6.95-10.04l74.82-199.05c1.09-2.9,3.86-4.81,6.95-4.81h58.43c3.9,0,7.14,3.02,7.41,6.91Zm-58.59,101.07l-6.71,21.59c-1.49,4.78,2.09,9.63,7.09,9.63h6.54c4.08,0,7.4-3.29,7.43-7.37l.16-21.59c.06-8.55-11.99-10.42-14.52-2.26Z"/>
    <path class="cls-2" d="m844.94,545.98l14.75,88.25c.63,3.74,6,3.76,6.65.03l15.45-88.34c.72-4.12,4.3-7.13,8.48-7.13h32.8c5.29,0,9.32,4.72,8.5,9.94l-30.9,196.69c-.66,4.19-4.27,7.27-8.5,7.27h-40.37c-4.15,0-7.71-2.96-8.47-7.05l-10.31-55.96c-1.74-9.46-15.33-9.37-16.95.11l-9.52,55.73c-.71,4.14-4.29,7.16-8.49,7.16h-33.64c-5.3,0-9.34-4.74-8.5-9.97l31.45-196.69c.67-4.18,4.27-7.25,8.5-7.25h40.57c4.21,0,7.8,3.04,8.49,7.19Z"/>
    <path class="cls-1" d="m471.89,838.38c-207.95,0-378.45-160.31-394.68-364.08H30.39c16.48,229.16,207.61,409.95,440.96,409.95,89.38,0,172.56-26.52,242.1-72.12h-99.52c-44.1,16.95-91.99,26.25-142.06,26.25Z"/>
    <path class="cls-1" d="m471.89,46.49c218.68,0,395.95,177.27,395.95,395.95,0,18.08-1.22,35.88-3.57,53.32h45.99c2.13-17.58,3.23-35.47,3.23-53.62,0-130.62-56.64-248.01-146.7-328.94C688.48,42.81,584.92,0,471.36,0c-90.07,0-173.85,26.94-243.73,73.2h101.02c44.42-17.24,92.72-26.71,143.23-26.71Z"/>
    <path class="cls-2" d="m262,171.05L47.3,436.21c-7.19,8.88-19.13,11.39-27.28,5.72-1.61-1.12-3.25-2.41-4.88-3.89-.08-.07-.15-.14-.22-.21-7.31-6.73-7.31-19-.11-27.9,71.58-88.4,143.16-176.79,214.74-265.19,6.99-8.64,18.62-11.41,26.69-6.11.79.52,1.58,1.08,2.35,1.67,1.28.98,2.48,2.02,3.6,3.11,7.01,6.84,6.92,18.87-.18,27.63Z"/>
    <path class="cls-2" d="m161.48,282.47l30.86,91.09c11.33,33.62,22.59,50.43,33.79,50.43,6.87,0,17.18-6.65,28.18-17.34,4.05-3.94,10.66.3,8.81,5.64h0c-.18.51-.43.99-.74,1.42-18.08,24.82-36.54,37.23-55.38,37.23-22.66,0-40.62-19.09-53.91-57.26l-24.61-71.33m-5.47-16.23l-26.95-81.31c-10.94-32.71-21.29-49.06-31.05-49.06-7.13,0-17.56,7.64-31.28,22.92-3.63,4.04-10.28.75-9.28-4.59l.69-3.7c.14-.76.44-1.48.88-2.11,19.16-27.36,37.82-41.03,55.97-41.03,22.92,0,41.99,22.74,57.23,68.2l17.19,50.81"/>
    <path class="cls-3" d="m221.09,137.47c16.15-1.95,32.3-3.9,48.44-5.84,1.22,16.01,2.43,32.02,3.65,48.03"/>
    <path class="cls-3" d="m59.09,442.24c-16.15,1.95-32.3,3.9-48.44,5.84-1.22-16.01-2.43-32.02-3.65-48.03"/>
  </g>
</svg>